<svg xmlns="http://www.w3.org/2000/svg" viewBox="0 0 400 400" fill="none" shape-rendering="auto"><metadata xmlns:rdf="http://www.w3.org/1999/02/22-rdf-syntax-ns#" xmlns:xsi="http://www.w3.org/2001/XMLSchema-instance" xmlns:dc="http://purl.org/dc/elements/1.1/" xmlns:dcterms="http://purl.org/dc/terms/"><rdf:RDF><rdf:Description><dc:title>Adventurer Neutral</dc:title><dc:creator>Lisa Wischofsky</dc:creator><dc:source xsi:type="dcterms:URI">https://www.figma.com/community/file/1184595184137881796</dc:source><dcterms:license xsi:type="dcterms:URI">https://creativecommons.org/licenses/by/4.0/</dcterms:license><dc:rights>Remix of „Adventurer Neutral” (https://www.figma.com/community/file/1184595184137881796) by „Lisa Wischofsky”, licensed under „CC BY 4.0” (https://creativecommons.org/licenses/by/4.0/)</dc:rights></rdf:Description></rdf:RDF></metadata><mask id="viewboxMask"><rect width="400" height="400" rx="0" ry="0" x="0" y="0" fill="#fff" /></mask><g mask="url(#viewboxMask)"><rect fill="#ecad80" width="400" height="400" x="0" y="0" /><g transform="translate(-279 -322)"><path d="M589.95 433.05c11.85 6.92 21.04 17.5 26.7 29.97 5.94-3.13 11.68-6.68 17.7-9.63 1.78-.95 4.39.55 3.97 2.62.2 1.48-2.02 2.5-3.06 3.23-5.45 3-10.88 6.04-16.34 9.03 1.7 6.87 3.23 13.6 3.24 20.73-.06 12.85-3.69 25.61-10.87 36.3a65.88 65.88 0 0 1-31.79 25.28 65.87 65.87 0 0 1-38.5 2.03 65.1 65.1 0 0 1-40-29.6 63.2 63.2 0 0 1-9.31-33 64.44 64.44 0 0 1 15.41-42.92c9.58-11.27 23.24-19.42 37.87-21.9a65.18 65.18 0 0 1 44.98 7.86Z" fill="#000"/><path d="M549.2 430.27a59.7 59.7 0 0 1 44.36 12.14c14.46 11.19 23.27 29.3 22.81 47.6.02 22.44-13.8 43.89-34.2 53.21-10.96 5.08-23.24 7-35.17 4.83a59.56 59.56 0 0 1-40.74-27.3 61.53 61.53 0 0 1-8.98-28.72 60.36 60.36 0 0 1 13.88-40.9 59.51 59.51 0 0 1 38.04-20.85Z" fill="#fff"/><path d="M390.01 446.91a55.03 55.03 0 0 1 34.43 14.65c10.09 9.4 16.54 22.67 17.3 36.47a54.58 54.58 0 0 1-8.02 32.68 54.92 54.92 0 0 1-36.73 25.15 54.94 54.94 0 0 1-63.71-42.04c-2.36-9.4-1.56-18.93 1.03-28.19a605.7 605.7 0 0 0-11.32-4.5c-1.9-.78-4-1.44-5.35-3.08-.4-2.4.76-3.92 3.2-3.62 5.21 1.25 10 4.2 15.18 5.57 1.39-1.65 2.24-3.81 3.31-5.68 10.02-17.81 30.31-28.73 50.69-27.4Z" fill="#000"/><path d="M376.5 453.66c18.63-4.25 38.76 3.44 50 18.81a50.84 50.84 0 0 1 9.74 26.52c.67 13.61-4.44 27.48-14.06 37.18A49.44 49.44 0 0 1 392 550.83c-19.94 2.3-40.08-8.85-49.01-26.78a49.3 49.3 0 0 1 2.37-48.68 49.32 49.32 0 0 1 31.15-21.7Z" fill="#fff"/><path d="M578.28 465.43c6.24-.76 12.7.82 17.74 4.57 6.29 4.65 10.27 12.14 10.18 20a27.74 27.74 0 0 1-4.57 13.63c-4.1 6.13-11.27 10.06-18.6 10.54-8.2.5-16.42-3.28-21.25-9.97-6.02-7.97-6.24-19.8-.63-28.03a24.74 24.74 0 0 1 17.13-10.74ZM408.45 478.49c7.22-.86 14.8 2 19.61 7.47A21.98 21.98 0 0 1 433.8 502c.04 12-10.69 22.79-22.8 22.28-12.1.1-22.88-10.05-22.87-22.26-.7-11.81 8.67-22.32 20.32-23.53Z" fill="#000"/></g><g transform="translate(-279 -322)"><path d="M606.99 397.59c1.52-.4 3.26.6 4.74.97-.11 1.2-.17 2.45-.47 3.61-1.58 1.5-3.57 2.6-5.39 3.78-22.77 14.6-46.18 28.4-70.32 40.63-11.53 5.73-23.34 11.3-35.55 15.44-6.86 2.19-13.72 4.28-21 3.44-3.32-.31-6.17-3.02-6.24-6.43-.04-4.22 3-8.6 5.08-12.15 1.28-2.68 4.5-3.04 7-4.12 37.23-13.75 74.43-27.65 111.66-41.45 3.48-1.23 6.9-2.81 10.5-3.72ZM338.99 432.64c29.88 5.94 60.13 12.03 90.02 18.02 2.27.32 4.6.07 6.85.45 2.45 2.3 3.64 6.2 4.54 9.37 1.17 4.09-.15 8.77-3.9 11-4 2.63-9.92 2.17-14.5 1.9-8.75-1-17.42-3.8-25.69-6.74-19.61-7.16-38.69-16.93-56.97-26.97-1.67-.96-3.68-1.94-4.79-3.55-.38-2.88 1.85-4.16 4.44-3.48Z" fill="#000"/></g><g transform="translate(-279 -322)"><path d="M524.2 555.79c.5 6.88-.8 13.42-1.56 20.21a245.12 245.12 0 0 1-19.15 70.23c-3.65 7.33-6.74 15.74-13.95 20.34-4.25 3.06-10.3 1.77-14.6-.52-9.5-4.69-15.15-12.28-21.77-20.2-10.97-13.4-18.85-28.33-26.05-44-3.56-8.2-6.83-16.5-10.25-24.75-.87-2.13-1.17-4.1 1.07-5.43 4.72 0 9.31 1.5 14.06 1.5 9.3.25 18.74.41 27.98-.8 19.98-2.3 39.64-8.31 58-16.45 2.12-1.07 4.02-.6 6.22-.13Z" fill="#000"/><path d="M518.93 561.99c-1.93 15.16-3.98 30.2-8 44.98-4.7 16.77-10.28 33.84-19.06 48.96-2.17 3.44-5.3 7.34-9.89 6.51-7.43-1.55-14.07-8-18.68-13.73-9.88-10.97-17.89-23.26-24.61-36.38-6.13-11.12-10.64-22.89-15.69-34.52 4.8.44 9.6.8 14.4 1.2 1.13 5.94 4.6 11.5 8.45 16.07 5.08 5.94 12.23 9.8 20.13 9.97a27.87 27.87 0 0 0 16.68-7.36c8.02-7.35 11.96-17.07 14.48-27.43a265.03 265.03 0 0 0 21.79-8.27Z" fill="#8F2E45"/><path d="M490.65 572.12c-2.55 8.79-7.09 18.39-14.95 23.6-5.47 3.76-12.7 4.38-18.57 1.11-7-3.86-10.9-10.5-13.93-17.65 16.1-.33 32-2.32 47.45-7.06Z" fill="#fff"/></g><g transform="translate(-279 -322)"></g></g></svg>