<svg xmlns="http://www.w3.org/2000/svg" viewBox="0 0 200 200" fill="none" shape-rendering="auto"><metadata xmlns:rdf="http://www.w3.org/1999/02/22-rdf-syntax-ns#" xmlns:xsi="http://www.w3.org/2001/XMLSchema-instance" xmlns:dc="http://purl.org/dc/elements/1.1/" xmlns:dcterms="http://purl.org/dc/terms/"><rdf:RDF><rdf:Description><dc:title>Fun Emoji Set</dc:title><dc:creator>Davis Uche</dc:creator><dc:source xsi:type="dcterms:URI">https://www.figma.com/community/file/968125295144990435</dc:source><dcterms:license xsi:type="dcterms:URI">https://creativecommons.org/licenses/by/4.0/</dcterms:license><dc:rights>Remix of „Fun Emoji Set” (https://www.figma.com/community/file/968125295144990435) by „Davis Uche”, licensed under „CC BY 4.0” (https://creativecommons.org/licenses/by/4.0/)</dc:rights></rdf:Description></rdf:RDF></metadata><mask id="viewboxMask"><rect width="200" height="200" rx="0" ry="0" x="0" y="0" fill="#fff" /></mask><g mask="url(#viewboxMask)"><rect fill="#d9915b" width="200" height="200" x="0" y="0" /><g transform="matrix(1.5625 0 0 1.5625 37.5 110.94)"><path fill-rule="evenodd" clip-rule="evenodd" d="M4 4c10.24 32.68 61.73 31.31 72 0A167.66 167.66 0 0 1 4 4Z" fill="#2B1607"/><path d="M39.68 29h-.64c-17.41-.24-31.54-9.95-36-24.74a1.02 1.02 0 0 1 .2-.95.98.98 0 0 1 .91-.28 165.35 165.35 0 0 0 71.72 0 .91.91 0 0 1 .9.3 1.04 1.04 0 0 1 .19.97C71.93 19.37 57.36 29 39.68 29ZM5.33 5.3c4.73 13.13 17.76 21.54 33.7 21.77C55.6 27.3 69.29 18.8 74.56 5.3a167.24 167.24 0 0 1-69.22 0Z" fill="#000"/><g style="mix-blend-mode:soft-light" opacity=".4"><path d="M22.02 35.23c5.08 5.6 28.25 5.96 33.85 0a79.58 79.58 0 0 1-33.85 0Z" fill="#422715"/><path d="M22.02 35.23c5.08 5.6 28.25 5.96 33.85 0a79.58 79.58 0 0 1-33.85 0Z" stroke="#000" stroke-width="1.58" stroke-miterlimit="10"/></g><path fill-rule="evenodd" clip-rule="evenodd" d="M40.83 45H38.1c-2.67 0-5.24-1.06-7.13-2.94a10 10 0 0 1-2.96-7.1V19.54c0-1.9 2.8-3.94 4.88-3.46a29.03 29.03 0 0 0 13.26 0C48 15.7 51 17.62 51 19.53v15.44a9.98 9.98 0 0 1-6.28 9.29c-1.23.5-2.55.75-3.89.74Z" fill="url(#mouthTongueOut-a)"/><path fill-rule="evenodd" clip-rule="evenodd" d="M38.27 17c.95 3.75.33 13 1.13 13 .8 0 .53-9.01 1.37-13h-2.5Z" fill="#A00707"/><defs><linearGradient id="mouthTongueOut-a" x1="39.46" y1="45" x2="39.46" y2="16" gradientUnits="userSpaceOnUse"><stop stop-color="#EF0A0A"/><stop offset=".5" stop-color="#ED0A0A"/><stop offset=".67" stop-color="#E60A0A"/><stop offset=".8" stop-color="#DB0A0A"/><stop offset=".9" stop-color="#CA0A0A"/><stop offset=".99" stop-color="#B40A0A"/><stop offset="1" stop-color="#B10A0A"/></linearGradient></defs></g><g transform="matrix(1.5625 0 0 1.5625 31.25 59.38)"><path d="M87.22 13.98c0-7.2-5.82-13.04-13-13.04s-13 5.84-13 13.04v3.92c0 7.2 5.82 13.04 13 13.04s13-5.83 13-13.04v-3.92Z" fill="#000"/><path d="M70 10.48a2.29 2.29 0 1 0 0-4.58 2.29 2.29 0 0 0 0 4.58Z" fill="#fff"/><path opacity=".1" d="M74.24 19.3a5.32 5.32 0 1 0 0-10.66 5.32 5.32 0 0 0 0 10.65Z" fill="#fff"/><path d="M26.22 13.98c0-7.2-5.82-13.04-13-13.04s-13 5.84-13 13.04v3.92c0 7.2 5.82 13.04 13 13.04s13-5.83 13-13.04v-3.92Z" fill="#000"/><path d="M9 10.48A2.29 2.29 0 1 0 9 5.9a2.29 2.29 0 0 0 0 4.58Z" fill="#fff"/><path opacity=".1" d="M13.24 19.3a5.32 5.32 0 1 0 0-10.66 5.32 5.32 0 0 0 0 10.65Z" fill="#fff"/><path d="M84.33-5.7H65.45C58.63-5.7 53.1-.2 53.1 6.6v18.8c0 6.79 5.52 12.3 12.34 12.3h18.88c6.81 0 12.34-5.51 12.34-12.3V6.6c0-6.8-5.53-12.3-12.34-12.3Z" fill="url(#eyesGlasses-a)"/><path d="M21.3-5.7H2.42C-4.4-5.7-9.92-.2-9.92 6.6v18.8c0 6.79 5.52 12.3 12.34 12.3H21.3c6.81 0 12.34-5.51 12.34-12.3V6.6c0-6.8-5.53-12.3-12.34-12.3Z" fill="url(#eyesGlasses-b)"/><g fill="#000"><path d="M21.06 40.12H2.18A14.83 14.83 0 0 1-8.2 35.81a14.71 14.71 0 0 1-4.33-10.34V6.6c.02-3.87 1.58-7.59 4.34-10.34A14.85 14.85 0 0 1 2.18-8.06h18.88c3.92.02 7.66 1.58 10.42 4.35 2.76 2.76 4.31 6.5 4.31 10.4v18.7A14.62 14.62 0 0 1 26.71 39c-1.79.74-3.7 1.12-5.65 1.12ZM2.18-3.26A9.96 9.96 0 0 0-7 2.83a9.85 9.85 0 0 0-.76 3.78v18.8a9.85 9.85 0 0 0 9.9 9.86h18.92a9.93 9.93 0 0 0 9.9-9.86V6.6a9.87 9.87 0 0 0-9.9-9.86H2.18ZM84.33 40.12H65.46a14.83 14.83 0 0 1-10.39-4.31 14.71 14.71 0 0 1-4.33-10.34V6.6c.02-3.87 1.58-7.59 4.34-10.34a14.85 14.85 0 0 1 10.38-4.32h18.87c3.9.03 7.65 1.59 10.41 4.35s4.31 6.5 4.32 10.4v18.7c0 3.9-1.56 7.64-4.32 10.4a14.83 14.83 0 0 1-10.41 4.33ZM65.46-3.26a9.93 9.93 0 0 0-9.9 9.87v18.8a9.85 9.85 0 0 0 9.9 9.86h18.87a9.93 9.93 0 0 0 9.9-9.86V6.6a9.85 9.85 0 0 0-9.9-9.86H65.46Z"/><path d="M53.1 10.64H33.4v4.89h19.7v-4.89Z"/></g><defs><linearGradient id="eyesGlasses-a" x1="2332.67" y1="1561.82" x2="3621.21" y2="1561.82" gradientUnits="userSpaceOnUse"><stop stop-color="#fff" stop-opacity=".3"/><stop offset=".5" stop-color="#969696" stop-opacity=".2"/><stop offset="1" stop-color="#fff" stop-opacity=".3"/></linearGradient><linearGradient id="eyesGlasses-b" x1="2269.64" y1="1561.82" x2="3558.18" y2="1561.82" gradientUnits="userSpaceOnUse"><stop stop-color="#fff" stop-opacity=".3"/><stop offset=".5" stop-color="#969696" stop-opacity=".2"/><stop offset="1" stop-color="#fff" stop-opacity=".3"/></linearGradient></defs></g></g></svg>