<svg xmlns="http://www.w3.org/2000/svg" viewBox="0 0 128 128" fill="none" shape-rendering="auto"><metadata xmlns:rdf="http://www.w3.org/1999/02/22-rdf-syntax-ns#" xmlns:xsi="http://www.w3.org/2001/XMLSchema-instance" xmlns:dc="http://purl.org/dc/elements/1.1/" xmlns:dcterms="http://purl.org/dc/terms/"><rdf:RDF><rdf:Description><dc:title>Croodles - Doodle your face</dc:title><dc:creator>vijay verma</dc:creator><dc:source xsi:type="dcterms:URI">https://www.figma.com/community/file/966199982810283152</dc:source><dcterms:license xsi:type="dcterms:URI">https://creativecommons.org/licenses/by/4.0/</dcterms:license><dc:rights>Remix of „Croodles - Doodle your face” (https://www.figma.com/community/file/966199982810283152) by „vijay verma”, licensed under „CC BY 4.0” (https://creativecommons.org/licenses/by/4.0/)</dc:rights></rdf:Description></rdf:RDF></metadata><mask id="viewboxMask"><rect width="128" height="128" rx="0" ry="0" x="0" y="0" fill="#fff" /></mask><g mask="url(#viewboxMask)"><g transform="translate(7 4)"><path d="M26.7 26.3c1-2.5 4.2-7.3 9.9-7.1 5.7.2 8.3 3.4 8.9 5M71.2 24.6c1-2.9 4.2-8.4 9.2-7.7 5 .6 7.5 4.3 8.1 6M25 43c2.7-4 9.5-6.7 15-6.2 6.7.6 4.3 6.6 2.6 7.3-2.2.9-5.2-.9-3.3-3.3 1.4-2 2.8 0 2.4.8M72.6 38.6c1.7-1.7 6.5-5.2 11.4-5 6.1.4 7.8 3.4 6 5.5-2 2.2-4.6 2.5-4.6 0 0-2.4 2-2.5 2.8-1" stroke="#000" stroke-width="3" stroke-linecap="round" stroke-linejoin="round"/></g><g transform="translate(47 46)"><path d="M13.3 12C15 28 20.7 22.4 23 31.3c2 7-9.2 7.7-12.1 5.4" stroke="#000" stroke-width="3" stroke-linecap="round" stroke-linejoin="round"/></g><g transform="translate(30 93)"><path d="M13.6 13.8c4.7 4 13.5 6.5 22.5 5.4A25 25 0 0 0 54.9 8.5M10 16.5c1.6-1 4.8-3.7 5-6.6M53.1 6c1 1.6 3.8 4.8 6.6 5" stroke="#000" stroke-width="3" stroke-linecap="round" stroke-linejoin="round"/></g></g></svg>