<svg xmlns="http://www.w3.org/2000/svg" viewBox="0 0 210 210" fill="none" shape-rendering="auto"><metadata xmlns:rdf="http://www.w3.org/1999/02/22-rdf-syntax-ns#" xmlns:xsi="http://www.w3.org/2001/XMLSchema-instance" xmlns:dc="http://purl.org/dc/elements/1.1/" xmlns:dcterms="http://purl.org/dc/terms/"><rdf:RDF><rdf:Description><dc:title>Face Generator</dc:title><dc:creator>The Visual Team</dc:creator><dc:source xsi:type="dcterms:URI">https://www.figma.com/community/file/986078800058673824</dc:source><dcterms:license xsi:type="dcterms:URI">https://creativecommons.org/licenses/by/4.0/</dcterms:license><dc:rights>Remix of „Face Generator” (https://www.figma.com/community/file/986078800058673824) by „The Visual Team”, licensed under „CC BY 4.0” (https://creativecommons.org/licenses/by/4.0/)</dc:rights></rdf:Description></rdf:RDF></metadata><mask id="viewboxMask"><rect width="210" height="210" rx="0" ry="0" x="0" y="0" fill="#fff" /></mask><g mask="url(#viewboxMask)"><rect fill="#da9969" width="210" height="210" x="0" y="0" /><g transform="translate(86.8 138.9) scale(.71856)"><path d="M58.2 16.4a30.6 30.6 0 0 1-61.2 0c0-17 13.7-4.1 30.6-4.1 17 0 30.6-12.8 30.6 4Z" fill="#DE8383"/><path fill-rule="evenodd" clip-rule="evenodd" d="M56.8 25.4H-1.7c-1-3-2.2-6-2.2-9.3 0-11.1 6-9.5 15-7A61.6 61.6 0 0 0 27.6 12c6 0 11.6-1.6 16.4-2.9 9-2.5 14.3-3.4 14.3 7.7 0 3.2-.5 5.6-1.5 8.6Z" fill="#F9F9F9"/><path fill-rule="evenodd" clip-rule="evenodd" d="M50.4 36a29 29 0 0 1-23 11.5 29 29 0 0 1-22.6-11c4.1-5 12.9-8.4 23-8.4 9.8 0 18.3 3.2 22.6 8Z" fill="#C06E6E"/></g><g transform="translate(2 11) scale(.71856)"><path d="M76 52.4c3.6-2.8 9-8.4 19.8-8.4a25 25 0 0 1 18 8.4M180 52.4c3.6-2.8 9-8.4 19.8-8.4a25 25 0 0 1 18 8.4" stroke="#000" stroke-width="3.7" stroke-linecap="round"/><rect x="71" y="61.5" width="49.6" height="60.6" rx="14.4" fill="#fff"/><rect x="173" y="61.5" width="49.6" height="60.6" rx="14.4" fill="#fff"/><rect x="82" y="69.7" width="30.3" height="46.9" rx="9.6" fill="#757575"/><rect x="181.3" y="69.7" width="30.3" height="46.9" rx="9.6" fill="#757575"/></g><g transform="translate(15 89.2) scale(.71856)"><g fill="#F88888"><rect x="21" y="16" width="43.4" height="43.4" rx="21.7"/><rect x="194" y="16" width="43.4" height="43.4" rx="21.7"/></g></g><g transform="translate(80.3 79.8) scale(.71856)"><g fill="#000" fill-opacity=".2"><rect x="25.9" y="51.5" width="11.7" height="8.9" rx="4.4" transform="rotate(-90 25.9 51.5)"/><rect x="43.7" y="51.5" width="11.7" height="8.9" rx="4.4" transform="rotate(-90 43.7 51.5)"/><path d="M61.2 41.4c.2-.8.2-1.7.2-2.5C61.4 29.6 54 22 44.5 22H34a16.9 16.9 0 0 0-16.7 19.4A16.9 16.9 0 0 1 33.9 27h10.6C53 27 60 33.2 61.2 41.4Z"/></g></g></g></svg>