<svg xmlns="http://www.w3.org/2000/svg" viewBox="0 0 210 210" fill="none" shape-rendering="auto"><metadata xmlns:rdf="http://www.w3.org/1999/02/22-rdf-syntax-ns#" xmlns:xsi="http://www.w3.org/2001/XMLSchema-instance" xmlns:dc="http://purl.org/dc/elements/1.1/" xmlns:dcterms="http://purl.org/dc/terms/"><rdf:RDF><rdf:Description><dc:title>Face Generator</dc:title><dc:creator>The Visual Team</dc:creator><dc:source xsi:type="dcterms:URI">https://www.figma.com/community/file/986078800058673824</dc:source><dcterms:license xsi:type="dcterms:URI">https://creativecommons.org/licenses/by/4.0/</dcterms:license><dc:rights>Remix of „Face Generator” (https://www.figma.com/community/file/986078800058673824) by „The Visual Team”, licensed under „CC BY 4.0” (https://creativecommons.org/licenses/by/4.0/)</dc:rights></rdf:Description></rdf:RDF></metadata><mask id="viewboxMask"><rect width="210" height="210" rx="0" ry="0" x="0" y="0" fill="#fff" /></mask><g mask="url(#viewboxMask)"><rect fill="#da9969" width="210" height="210" x="0" y="0" /><g transform="translate(86.8 138.9) scale(.71856)"><path d="M59 15a31 31 0 0 1-62 0C-3-2 10.8 11 28 11c17 0 31-13 31 4.1Z" fill="#DE8383"/><path fill-rule="evenodd" clip-rule="evenodd" d="M56.3 7A31 31 0 0 1-.3 7c2.5-1.7 6.8-.5 12.1 1 4.7 1.3 10.3 2.9 16.2 2.9 6 0 11.5-1.6 16.2-3 5.3-1.4 9.5-2.6 12-1Z" fill="#F9F9F9"/></g><g transform="translate(2 11) scale(.71856)"><path d="M75 75a23.9 23.9 0 1 0 40.7 22.7L75.2 75ZM211.1 75a23.9 23.9 0 1 1-40.7 22.7L211 75Z" fill="#fff"/><path d="M74.5 52.5c7.5 5 40 26 49 31.5M213 53c-7.5 5-40 26-49 31.5" stroke="#000" stroke-width="3.7" stroke-linecap="round"/><path d="M75 53c7.5 5 40 26 49 31.5M213.5 53.5c-7.5 5-40 26-49 31.5" stroke="#000" stroke-width="3.7" stroke-linecap="round"/></g><g transform="translate(15 89.2) scale(.71856)"></g><g transform="translate(80.3 79.8) scale(.71856)"><path d="M37.8 22c-7.1 9.5-20.2 29-16 31 4.3 2 18.6 2.5 25.3 2.5" stroke="#000" stroke-opacity=".5" stroke-width="4" stroke-linecap="round" stroke-linejoin="round"/></g></g></svg>