<svg xmlns="http://www.w3.org/2000/svg" viewBox="0 0 210 210" fill="none" shape-rendering="auto"><metadata xmlns:rdf="http://www.w3.org/1999/02/22-rdf-syntax-ns#" xmlns:xsi="http://www.w3.org/2001/XMLSchema-instance" xmlns:dc="http://purl.org/dc/elements/1.1/" xmlns:dcterms="http://purl.org/dc/terms/"><rdf:RDF><rdf:Description><dc:title>Face Generator</dc:title><dc:creator>The Visual Team</dc:creator><dc:source xsi:type="dcterms:URI">https://www.figma.com/community/file/986078800058673824</dc:source><dcterms:license xsi:type="dcterms:URI">https://creativecommons.org/licenses/by/4.0/</dcterms:license><dc:rights>Remix of „Face Generator” (https://www.figma.com/community/file/986078800058673824) by „The Visual Team”, licensed under „CC BY 4.0” (https://creativecommons.org/licenses/by/4.0/)</dc:rights></rdf:Description></rdf:RDF></metadata><mask id="viewboxMask"><rect width="210" height="210" rx="0" ry="0" x="0" y="0" fill="#fff" /></mask><g mask="url(#viewboxMask)"><rect fill="#c07f50" width="210" height="210" x="0" y="0" /><g transform="translate(86.8 138.9) scale(.71856)"><path fill-rule="evenodd" clip-rule="evenodd" d="M16.8 33.3a2.5 2.5 0 0 1 3.5-.7c4.1 2.7 18.5 5.6 37-14a2.5 2.5 0 0 1 3.7 3.5C41.4 42.8 24.4 41.3 17.5 36.9a2.5 2.5 0 0 1-.7-3.6Z" fill="#000"/></g><g transform="translate(2 11) scale(.71856)"><path d="M56 44.4A60.5 60.5 0 0 1 89 35c18.2 0 35.1 7.8 33 9.4 0 18.2-3.5 0-32 0-30.8 0-34 18.2-34 0ZM166.9 44.4a60.5 60.5 0 0 1 33-9.4c18.1 0 35 7.8 32.9 9.4 0 18.2-3.4 0-32 0-30.7 0-34 18.2-34 0Z" fill="#000"/><ellipse cx="88" cy="97.5" rx="29" ry="17.5" fill="#fff"/><path d="M81.2 114.5a18 18 0 0 0-1.9-33.7C67.5 83 59 89.7 59 97.5c0 8.2 9.5 15.2 22.2 17Z" fill="#000"/><ellipse cx="198" cy="97.5" rx="29" ry="17.5" fill="#fff"/><path d="M191.2 114.5a18 18 0 0 0-1.9-33.7C177.5 83 169 89.7 169 97.5c0 8.2 9.5 15.2 22.2 17Z" fill="#000"/></g><g transform="translate(15 89.2) scale(.71856)"></g><g transform="translate(80.3 79.8) scale(.71856)"><path d="M37.8 22c-7.1 9.5-20.2 29-16 31 4.3 2 18.6 2.5 25.3 2.5" stroke="#000" stroke-opacity=".5" stroke-width="4" stroke-linecap="round" stroke-linejoin="round"/></g></g></svg>